<?xml version="1.0" encoding="UTF-8" standalone="no"?>
<!-- Created with Inkscape (http://www.inkscape.org/) -->

<svg
   xmlns:dc="http://purl.org/dc/elements/1.1/"
   xmlns:cc="http://creativecommons.org/ns#"
   xmlns:rdf="http://www.w3.org/1999/02/22-rdf-syntax-ns#"
   xmlns:svg="http://www.w3.org/2000/svg"
   xmlns="http://www.w3.org/2000/svg"
   xmlns:sodipodi="http://sodipodi.sourceforge.net/DTD/sodipodi-0.dtd"
   xmlns:inkscape="http://www.inkscape.org/namespaces/inkscape"
   width="150.5"
   height="258.0834"
   id="svg2"
   version="1.1"
   inkscape:version="0.48.2 r9819"
   sodipodi:docname="Nouveau document 1">
  <defs
     id="defs4" />
  <sodipodi:namedview
     id="base"
     pagecolor="#ffffff"
     bordercolor="#666666"
     borderopacity="1.0"
     inkscape:pageopacity="0.0"
     inkscape:pageshadow="2"
     inkscape:zoom="1.01"
     inkscape:cx="276.14074"
     inkscape:cy="123.952"
     inkscape:document-units="px"
     inkscape:current-layer="layer1"
     showgrid="false"
     fit-margin-top="0"
     fit-margin-left="0"
     fit-margin-right="0"
     fit-margin-bottom="0"
     inkscape:window-width="1440"
     inkscape:window-height="845"
     inkscape:window-x="-3"
     inkscape:window-y="-3"
     inkscape:window-maximized="1" />
  <metadata
     id="metadata7">
    <rdf:RDF>
      <cc:Work
         rdf:about="">
        <dc:format>image/svg+xml</dc:format>
        <dc:type
           rdf:resource="http://purl.org/dc/dcmitype/StillImage" />
        <dc:title></dc:title>
      </cc:Work>
    </rdf:RDF>
  </metadata>
  <g
     inkscape:label="Calque 1"
     inkscape:groupmode="layer"
     id="layer1"
     transform="translate(-98.859262,-65.774068)">
    <path
       style="fill:#000000"
       d="m 178.75009,321.89634 c -0.31852,-1.26905 -0.28438,-2.78427 0.0759,-3.36714 1.07682,-1.74233 -0.56084,-9.87605 -2.108,-10.46975 -1.84541,-0.70815 -2.97577,2.19299 -1.67473,4.29832 1.50294,2.43203 0.56758,3.87941 -3.34061,5.16923 -4.54343,1.49947 -6.5026,0.0342 -4.4178,-3.30409 0.75651,-1.21136 1.97189,-4.46263 2.70085,-7.22504 1.20282,-4.55815 1.13283,-5.56501 -0.75693,-10.88888 -1.88312,-5.30517 -2.01931,-7.21825 -1.4238,-20 0.36217,-7.77353 0.88726,-15.33223 1.16685,-16.79712 0.40855,-2.1405 0.0547,-2.80295 -1.80208,-3.37408 -5.12761,-1.57714 -12.35394,-12.96026 -13.36505,-21.05293 -0.51702,-4.13807 -1.07188,-5.40956 -2.36066,-5.40956 -0.92662,0 -2.14712,0.46234 -2.7122,1.02743 -0.56509,0.56509 -3.54264,1.09361 -6.61678,1.17449 -4.76496,0.12537 -5.66336,0.45318 -6.09115,2.22257 -1.4682,6.07266 -3.58439,10.07488 -5.32167,10.06455 -2.05734,-0.0122 -2.18024,-2.34013 -0.56794,-10.75697 0.79433,-4.14668 0.70562,-4.70983 -0.68085,-4.32196 -0.8768,0.24528 -4.40668,0.74754 -7.84418,1.11612 -5.91989,0.63475 -6.25,0.55766 -6.25,-1.45943 0,-1.17126 0.7875,-2.36345 1.75,-2.6493 0.9625,-0.28585 3.02396,-1.17173 4.58104,-1.96861 1.55707,-0.79689 3.49946,-1.44889 4.31642,-1.44889 1.03046,0 1.38847,-0.84223 1.16896,-2.75 -0.28888,-2.51065 -0.72291,-2.77624 -4.98675,-3.05154 -5.14483,-0.33217 -8.29443,-2.65904 -5.76537,-4.25936 1.55447,-0.98363 4.87376,-1.36046 9.11739,-1.03508 2.02885,0.15557 3.90915,-1.01539 7.72371,-4.80992 2.77311,-2.75855 6.51635,-5.76988 8.31831,-6.69184 1.80196,-0.92196 4.91604,-2.96463 6.92019,-4.53927 2.00415,-1.57465 4.14165,-2.86299 4.75,-2.86299 1.90585,0 1.20726,-1.63288 -1.16006,-2.7115 -3.36516,-1.53327 -14.7337,-11.59374 -14.73378,-13.0385 -3e-5,-0.6875 -0.37314,-1.25 -0.82913,-1.25 -1.66251,0 -5.24944,-9.67212 -6.01892,-16.22997 -0.76208,-6.49485 -0.17042,-15.98595 1.28176,-20.56138 0.60863,-1.9176 0.32974,-2.21284 -2.11639,-2.24045 -3.59514,-0.0406 -6.31738,-2.101 -6.31738,-4.78152 0,-1.42007 -1.15787,-2.64229 -3.60186,-3.80204 -3.4044,-1.61549 -3.56899,-1.9148 -3.00216,-5.45949 0.32983,-2.06267 0.86516,-4.4421 1.18962,-5.28764 0.41537,-1.08244 -0.46471,-1.97798 -2.97434,-3.02657 -1.96035,-0.81909 -4.53535,-2.39394 -5.72221,-3.49967 -1.94562,-1.81262 -2.05189,-2.42816 -1.08018,-6.25639 1.17824,-4.641929 1.59601,-4.01982 -6.30887,-9.394703 -1.65,-1.121908 -2.999998,-2.696908 -2.999998,-3.5 0,-0.803092 2.249998,-2.523607 4.999998,-3.823367 2.75,-1.29976 5.77068,-2.75557 6.71262,-3.235133 0.94194,-0.479563 4.97695,-1.37841 8.96668,-1.997438 7.92695,-1.229907 16.13363,-0.107991 20.76178,2.838292 5.50224,3.502725 10.84728,9.921811 13.12093,15.757479 1.28572,3.3 2.64382,6.37357 3.018,6.83017 0.37419,0.45659 4.54939,-0.51916 9.27823,-2.16834 4.72885,-1.64918 11.72028,-3.57598 15.53652,-4.28177 l 6.93862,-1.28326 0.65242,-4.548398 c 1.59429,-11.114759 12.68652,-22.193267 28.4701,-28.434891 6.12649,-2.422724 14.3552,-1.436259 20.49397,2.456834 4.77575,3.028689 5.77168,5.670972 3.00345,7.968396 -0.85067,0.705997 -2.43437,2.530269 -3.51931,4.053939 -1.89481,2.661007 -1.90596,2.936941 -0.28276,6.993726 l 1.68988,4.223418 -2.59814,2.095088 c -1.42898,1.152299 -3.78589,2.926339 -5.23757,3.942312 -2.31189,1.617996 -2.46724,2.052316 -1.25186,3.499996 0.76316,0.90903 1.9151,3.45278 2.55985,5.65277 1.02448,3.49566 0.95254,4.15331 -0.57056,5.2159 -3.67763,2.56569 -4.36272,3.52497 -3.6685,5.1367 1.88402,4.37397 4.27914,12.23093 4.5086,14.79004 0.74509,8.30948 -2.54447,32.04163 -5.23886,37.79519 -1.01425,2.16581 -1.84409,4.46495 -1.84409,5.10921 0,0.64426 -1.80963,3.22723 -4.0214,5.73993 -2.21177,2.5127 -3.67427,4.78155 -3.25,5.0419 0.42427,0.26034 2.5229,0.75057 4.66361,1.0894 5.33441,0.84431 15.06109,6.1917 16.64467,9.15065 0.7156,1.33709 1.67504,2.43108 2.1321,2.43108 0.45706,0 0.83102,0.89653 0.83102,1.99229 0,1.09575 1.35,3.19514 3,4.66529 1.65,1.47016 3,3.1882 3,3.81788 0,0.62968 -1.4034,2.58029 -3.11866,4.3347 -1.95124,1.99578 -2.58024,3.18984 -1.68033,3.18984 1.22728,0 5.79899,4.25764 5.79899,5.40062 0,1.05932 -3.22943,1.39397 -5.9427,0.61581 -1.84699,-0.52971 -3.0573,-0.50858 -3.0573,0.0534 0,0.5116 0.4813,0.93019 1.06955,0.93019 1.84282,0 0.52734,4.46109 -1.42528,4.83347 -1.05058,0.20035 -3.21995,-0.93195 -5,-2.60976 -1.72935,-1.63002 -4.54036,-3.22265 -6.24669,-3.53917 l -3.10241,-0.57551 -0.58922,10.40474 c -0.4678,8.2608 -1.1116,11.49491 -3.12443,15.69548 l -2.53522,5.29075 4.08998,3.97489 c 3.94325,3.83226 10.86372,13.65674 10.86372,15.42238 0,0.47216 0.73307,2.60092 1.62904,4.73059 3.18873,7.57936 2.73457,15.04609 -1.36843,22.49849 -0.18967,0.3445 1.2491,1.56683 3.19727,2.71628 4.30015,2.53715 4.73753,5.75236 0.97702,7.1821 -3.28751,1.24991 -4.4349,1.23221 -4.4349,-0.0684 0,-1.48183 -4.80664,-6.48305 -5.53285,-5.75684 -0.33177,0.33177 0.0924,2.94577 0.94271,5.8089 1.61925,5.4526 0.90189,8.99158 -1.8226,8.99158 -2.10773,0 -3.27858,-2.11036 -4.02239,-7.25 -0.54949,-3.79691 -1.07642,-4.75 -2.62614,-4.75 -1.38881,0 -1.93873,0.69238 -1.93873,2.44098 0,1.34254 0.45,2.7191 1,3.05902 1.47065,0.90891 1.23828,1.86711 -1.04787,4.321 -1.69145,1.81557 -2.40972,2.00447 -4.12698,1.08542 -1.87765,-1.00488 -2.0315,-1.7783 -1.58768,-7.98128 0.46649,-6.51985 0.34162,-7.035 -2.45957,-10.14685 -5.87097,-6.52206 -8.07015,-14.23245 -7.63668,-26.77431 l 0.29392,-8.50398 -3.46757,0 -3.46757,0 0.31312,8 c 0.17222,4.4 0.6575,10.56746 1.0784,13.70547 0.52236,3.89437 0.37005,6.64545 -0.4798,8.66665 -0.68479,1.62865 -1.02165,3.18462 -0.74857,3.4577 0.27309,0.27308 -0.51359,2.25161 -1.74816,4.39674 l -2.24469,3.90022 2.77639,5.67474 c 2.9123,5.95252 2.84696,8.69848 -0.20699,8.69848 -1.21888,0 -2.72823,-1.8456 -4.55431,-5.56891 -1.97182,-4.02046 -3.21147,-5.47316 -4.45832,-5.22455 -1.3083,0.26085 -1.75111,1.4293 -1.82622,4.8189 -0.16273,7.34333 -0.29685,7.72153 -2.91588,8.22218 -1.99672,0.3817 -2.63438,0.005 -3.09414,-1.82658 z m 10.15462,-18.87559 c 1.35,-1.35 2.45455,-3.57344 2.45455,-4.94098 0,-1.36754 0.48555,-2.78652 1.07901,-3.1533 0.66384,-0.41028 0.85671,-2.45299 0.50128,-5.30902 -0.31775,-2.55318 -0.83449,-6.73692 -1.14832,-9.2972 -1.85021,-15.09434 -1.3868,-14.06947 -6.93356,-15.33394 -2.74913,-0.6267 -6.04607,-1.70771 -7.32655,-2.40224 -4.9334,-2.67587 -5.32926,-1.45514 -4.97613,15.34508 0.22249,10.58511 0.71635,15.85823 1.56469,16.70657 0.68177,0.68177 1.23958,2.01496 1.23958,2.96266 0,2.59818 5.7783,7.87692 8.62238,7.87692 1.35769,0 3.57307,-1.10455 4.92307,-2.45455 z m 37.09095,-1.79545 c 5.40785,-4.35559 6.36363,-6.03615 6.33901,-11.14602 -0.0663,-13.76322 -11.84297,-32.36773 -19.04238,-30.08273 -3.70178,1.1749 -5.18316,6.96339 -4.6011,17.97875 0.44073,8.34093 0.96597,10.78275 3.16584,14.71799 4.55086,8.14083 10.30962,11.61597 14.13863,8.53201 z m -19.3864,-43.1559 c 1.5125,-1.00327 2.75,-2.4585 2.75,-3.23386 0,-0.77536 1.0125,-1.80752 2.25,-2.29369 2.92599,-1.14953 5.72386,-4.55834 6.94075,-8.45633 1.505,-4.82091 1.05486,-31.66264 -0.61014,-36.38174 -3.13788,-8.89371 -6.71292,-15.22848 -8.59421,-15.22848 -2.91037,0 -3.18746,1.5449 -0.95557,5.32769 3.28694,5.57094 3.90266,9.13465 4.07173,23.56663 0.13932,11.89292 -0.10303,14.17217 -1.92521,18.10568 -3.7291,8.04997 -8.01951,11.66901 -15.4656,13.04549 -4.90615,0.90695 -6.10885,0.79 -9.41807,-0.9158 -10.20246,-5.25906 -13.66587,-13.01652 -14.78767,-33.12193 -0.30309,-5.43211 0.0523,-10.60365 1.01362,-14.74863 0.8142,-3.51078 1.48037,-6.58031 1.48037,-6.82118 0,-0.24087 -1.75801,-0.43795 -3.90668,-0.43795 l -3.90669,0 -3.34332,7.75 c -3.19944,7.4165 -3.34331,8.28791 -3.34331,20.25 0,11.8187 0.15207,12.77252 2.79019,17.5 2.77312,4.96938 11.76408,12.6331 19.70981,16.80024 4.7805,2.50714 21.0935,2.05092 25.25,-0.70614 z m -5.16364,-13.84413 c 4.57177,-5.74481 5.18282,-7.83034 5.62461,-19.19711 0.42677,-10.98018 0.0232,-13.56163 -3.88878,-24.87736 l -1.32219,-3.82449 -5,0.59819 c -2.75,0.329 -8.15,0.92502 -12,1.32449 l -7,0.72631 -1.43834,7.83291 c -1.18905,6.4753 -1.22735,9.33511 -0.22097,16.5 1.78177,12.68537 3.8951,17.9537 8.55935,21.33761 3.06865,2.22631 4.98722,2.82947 9,2.82945 4.55657,-3e-5 5.37553,-0.34631 7.68632,-3.25 z m -56.46195,-18.22719 c 4.99805,-1.00224 7.61205,-4.68748 9.44652,-13.31776 0.90079,-4.23776 2.59677,-10.06752 3.76884,-12.95502 1.17207,-2.8875 1.88671,-5.25 1.58808,-5.25 -0.9164,0 -9.83062,5.11262 -11.5066,6.59944 -0.8683,0.77031 -1.93876,1.40056 -2.37879,1.40056 -1.47808,0 -9.02043,7.29292 -11.28734,10.91406 -3.21399,5.13399 -2.93042,8.41039 0.99488,11.4946 1.7875,1.40449 3.925,2.3707 4.75,2.14714 0.825,-0.22357 2.90598,-0.68842 4.62441,-1.03302 z m 91.74073,-9.59536 c 3.40153,-2.67564 3.3637,-6.0073 -0.14107,-12.42485 -2.03463,-3.72559 -4.00105,-5.69201 -7.72664,-7.72664 -4.40334,-2.40477 -9.49743,-3.64207 -9.49743,-2.30683 0,0.25801 1.125,3.91545 2.5,8.12765 1.375,4.2122 2.5,8.5846 2.5,9.71644 0,2.9866 3.89536,6.68681 7.03946,6.68681 1.47995,0 3.87651,-0.93266 5.32568,-2.07258 z m -43.86514,-24.32707 c 2.62686,-0.58455 6.38097,-1.93418 10.2391,-3.68102 2.33151,-1.05563 4.61301,-1.91933 5.07,-1.91933 0.457,0 2.72304,-1.6196 5.03566,-3.59911 2.80506,-2.40103 5.36327,-6.07361 7.685,-11.03263 2.9683,-6.34002 3.71557,-9.49002 5.07989,-21.41345 1.50094,-13.11742 1.49157,-14.42646 -0.1519,-21.21737 -1.33437,-5.51367 -2.49061,-7.91922 -4.85464,-10.09998 -6.63176,-6.11765 -13.70554,-10.86402 -18.21298,-12.22056 -6.74677,-2.03047 -19.51924,-1.74627 -27.89013,0.62058 -3.85,1.08858 -8.2375,2.25673 -9.75,2.59588 -1.5125,0.33916 -2.75,0.95674 -2.75,1.37242 0,0.41567 -2.5875,2.0236 -5.75,3.57318 -6.50684,3.18824 -10.25,6.14456 -10.25,8.09536 0,0.72912 -0.35493,1.32568 -0.78872,1.32568 -1.55157,0 -7.1545,10.60783 -8.64454,16.36643 -0.93205,3.60211 -1.40324,9.01692 -1.22076,14.02876 0.36637,10.06222 4.03097,18.55186 9.99138,23.14665 11.77974,9.08082 14.08097,10.45816 17.47319,10.45816 1.90793,0 3.96857,0.65513 4.57921,1.45585 1.88766,2.47527 17.59545,3.81677 25.11024,2.1445 z m -15.6956,-6.53957 c -1.46554,-1.15279 -2.90841,-1.7015 -3.20639,-1.21937 -0.29798,0.48214 -3.05845,1.1724 -6.13438,1.53392 -7.14476,0.83972 -12.04703,-1.20208 -12.96945,-5.40179 -0.76832,-3.49817 1.04619,-7.2087 3.3118,-6.77239 0.91908,0.177 1.83714,1.21665 2.04014,2.31033 0.203,1.09369 0.82577,2.55102 1.38393,3.23852 1.03597,1.27603 9.91896,1.76766 11.07374,0.61288 0.35042,-0.35042 -0.36208,-2.03792 -1.58334,-3.75 -1.86975,-2.62123 -2.26981,-4.6923 -2.53299,-13.11288 -0.29798,-9.53406 -0.18149,-10.20003 2.5,-14.29304 1.67713,-2.55996 3.82178,-4.51503 5.31254,-4.84294 1.375,-0.30245 3.29076,-0.76444 4.25724,-1.02665 1.07756,-0.29234 2.95617,0.7222 4.85697,2.623 l 3.09973,3.09973 -0.45831,11.21995 c -0.48668,11.91449 -1.6828,15.7999 -5.49331,17.84422 -1.71945,0.92247 -1.98058,1.51028 -1.12755,2.53811 1.59668,1.92389 4.15538,1.64755 6.1332,-0.66238 0.94185,-1.1 2.61686,-2 3.72224,-2 1.54863,0 2.00979,0.66198 2.00979,2.88499 0,3.54974 -2.93806,5.68326 -9.09861,6.60709 -3.6316,0.54459 -4.9138,0.286 -7.09699,-1.4313 z m 31.67606,-26.31078 c -0.25122,-0.6875 -0.65677,-4.85 -0.90121,-9.25 -0.24444,-4.4 -0.48908,-8.675 -0.54365,-9.5 -0.16655,-2.51826 -2.6719,-5.07679 -4.34325,-4.43543 -1.86525,0.71576 -3.6862,8.44354 -3.70766,15.73465 -0.0178,6.03746 -0.97702,8.04228 -3.60452,7.53348 -1.56527,-0.3031 -1.88249,-1.28261 -1.89404,-5.84839 -0.0152,-5.99166 1.77148,-15.22041 3.61408,-18.66836 1.48975,-2.7877 6.13297,-4.72522 9.37428,-3.91171 3.84127,0.9641 5.64101,6.41438 6.22308,18.84576 0.48988,10.46235 0.4463,10.75 -1.6285,10.75 -1.17251,0 -2.33739,-0.5625 -2.58861,-1.25 z m -52.12214,-11.43972 c 0.41771,-12.04563 -0.49091,-17.31028 -2.98753,-17.31028 -1.92652,0 -2.18965,0.90631 -3.62916,12.5 -1.12043,9.02385 -1.45236,10.03003 -3.40043,10.3076 -2.1227,0.30245 -2.14932,0.13528 -1.59251,-10 0.71357,-12.98884 2.05421,-16.49239 6.64003,-17.3527 1.90189,-0.3568 4.32399,-0.14383 5.49563,0.48321 4.12631,2.20833 5.11565,6.07859 5.11565,20.01223 l 0,13.04966 -3.02352,0 -3.02352,0 0.40536,-11.68972 z m -21.35832,-18.1939 c 0,-0.50347 1.575,-3.25584 3.5,-6.11638 5.81043,-8.63427 4.62341,-14.02583 -5.35567,-24.325854 -6.40036,-6.606211 -8.94044,-8.171762 -15.72567,-9.692363 -3.52683,-0.790381 -5.52633,-0.765603 -7.60209,0.09421 -3.66845,1.519523 -3.55212,2.427855 0.66147,5.164829 4.20041,2.728413 4.77437,3.965101 3.45309,7.440328 -1.41287,3.71612 -0.77873,4.72736 4.99961,7.97281 5.21936,2.9315 5.82765,4.06046 4.01386,7.44956 -1.52335,2.8464 -0.39155,5.28931 3.0529,6.58944 2.17532,0.82109 3.0025,1.78739 3.0025,3.50747 0,1.92049 0.57326,2.41784 3,2.60275 1.65,0.12573 3,-0.18334 3,-0.6868 z m 14.57569,-22.36836 c -0.88863,-5.55721 -2.67874,-8.595168 -7.99865,-13.574319 -5.1274,-4.79897 -12.57704,-7.863454 -12.57704,-5.173691 0,0.55 0.5625,0.996266 1.25,0.991703 0.6875,-0.0046 4.31181,3.257936 8.05404,7.25 4.69845,5.012137 7.15263,8.542367 7.93048,11.407647 0.79357,2.92318 1.5472,3.9879 2.55026,3.60299 1.05807,-0.40602 1.26124,-1.56308 0.79091,-4.50433 z m 74.49192,3.2158 c 1.91075,-1.0226 1.90989,-1.0876 -0.0657,-4.96015 -2.98926,-5.859437 -2.62478,-7.645228 2.04685,-10.028516 4.87759,-2.488357 5.69315,-4.193964 3.56123,-7.447681 -2.20108,-3.359276 -2.07409,-4.067177 1.53532,-8.558603 2.62226,-3.263052 2.93446,-4.167861 1.87755,-5.441362 -1.58509,-1.909918 -7.43608,-1.99543 -9.20139,-0.134477 -0.72679,0.766161 -3.63348,3.804989 -6.45932,6.75295 -5.37178,5.603875 -8.36215,12.602684 -8.36215,19.571069 0,3.01483 0.44799,3.54607 4.42966,5.25281 2.43631,1.04432 4.92715,2.82833 5.53518,3.96445 1.2422,2.32106 2.29325,2.53312 5.10277,1.02951 z m -20.3016,-14.543491 c 2.74952,-10.504151 3.68646,-12.563632 7.47309,-16.426573 2.15317,-2.19656 3.41525,-3.993746 2.80463,-3.993746 -1.95878,0 -10.45355,4.775685 -13.30064,7.477507 -3.40095,3.227427 -7.74309,11.59918 -7.74309,14.928884 0,2.122719 0.531,2.527169 3.75,2.856279 5.525,0.56487 5.61731,0.50116 7.01601,-4.842351 z"
       id="path3050"
       inkscape:connector-curvature="0" />
  </g>
</svg>
